<mxfile host="app.diagrams.net" modified="2023-12-20T08:16:22.222Z" agent="Mozilla/5.0 (Windows NT 10.0; Win64; x64) AppleWebKit/537.36 (KHTML, like Gecko) Chrome/120.0.0.0 Safari/537.36 Edg/120.0.0.0" etag="FfU2Gqw87DwfQOsHZXQd" version="22.1.11" type="device">
  <diagram name="Страница — 1" id="RHysL1ofzcVcCEf6PO8c">
    <mxGraphModel dx="2227" dy="1264" grid="1" gridSize="10" guides="1" tooltips="1" connect="1" arrows="1" fold="1" page="1" pageScale="1" pageWidth="1169" pageHeight="827" math="0" shadow="0">
      <root>
        <mxCell id="0" />
        <mxCell id="1" parent="0" />
        <mxCell id="63v9wnLywm1o2MaWcaOy-2" value="" style="rounded=0;whiteSpace=wrap;html=1;movable=1;resizable=1;rotatable=1;deletable=1;editable=1;locked=0;connectable=1;" vertex="1" parent="1">
          <mxGeometry x="165" y="165" width="920" height="498" as="geometry" />
        </mxCell>
        <mxCell id="63v9wnLywm1o2MaWcaOy-19" style="edgeStyle=orthogonalEdgeStyle;rounded=0;orthogonalLoop=1;jettySize=auto;html=1;exitX=0.5;exitY=0.5;exitDx=0;exitDy=0;exitPerimeter=0;entryX=0;entryY=0.5;entryDx=0;entryDy=0;" edge="1" parent="1" source="63v9wnLywm1o2MaWcaOy-3" target="63v9wnLywm1o2MaWcaOy-4">
          <mxGeometry relative="1" as="geometry" />
        </mxCell>
        <mxCell id="63v9wnLywm1o2MaWcaOy-3" value="Actor" style="shape=umlActor;verticalLabelPosition=bottom;verticalAlign=top;html=1;outlineConnect=0;" vertex="1" parent="1">
          <mxGeometry x="85" y="387" width="30" height="60" as="geometry" />
        </mxCell>
        <mxCell id="63v9wnLywm1o2MaWcaOy-11" style="edgeStyle=orthogonalEdgeStyle;rounded=0;orthogonalLoop=1;jettySize=auto;html=1;exitX=1;exitY=0.5;exitDx=0;exitDy=0;entryX=0;entryY=0.5;entryDx=0;entryDy=0;" edge="1" parent="1" source="63v9wnLywm1o2MaWcaOy-4" target="63v9wnLywm1o2MaWcaOy-5">
          <mxGeometry relative="1" as="geometry" />
        </mxCell>
        <mxCell id="63v9wnLywm1o2MaWcaOy-12" style="edgeStyle=orthogonalEdgeStyle;rounded=0;orthogonalLoop=1;jettySize=auto;html=1;exitX=1;exitY=0.5;exitDx=0;exitDy=0;entryX=0;entryY=0.5;entryDx=0;entryDy=0;" edge="1" parent="1" source="63v9wnLywm1o2MaWcaOy-4" target="63v9wnLywm1o2MaWcaOy-8">
          <mxGeometry relative="1" as="geometry" />
        </mxCell>
        <mxCell id="63v9wnLywm1o2MaWcaOy-13" style="edgeStyle=orthogonalEdgeStyle;rounded=0;orthogonalLoop=1;jettySize=auto;html=1;exitX=1;exitY=0.5;exitDx=0;exitDy=0;entryX=0;entryY=0.5;entryDx=0;entryDy=0;" edge="1" parent="1" source="63v9wnLywm1o2MaWcaOy-4" target="63v9wnLywm1o2MaWcaOy-9">
          <mxGeometry relative="1" as="geometry" />
        </mxCell>
        <mxCell id="63v9wnLywm1o2MaWcaOy-14" style="edgeStyle=orthogonalEdgeStyle;rounded=0;orthogonalLoop=1;jettySize=auto;html=1;exitX=1;exitY=0.5;exitDx=0;exitDy=0;entryX=0;entryY=0.5;entryDx=0;entryDy=0;" edge="1" parent="1" source="63v9wnLywm1o2MaWcaOy-4" target="63v9wnLywm1o2MaWcaOy-10">
          <mxGeometry relative="1" as="geometry">
            <Array as="points">
              <mxPoint x="355" y="417" />
              <mxPoint x="355" y="557" />
            </Array>
          </mxGeometry>
        </mxCell>
        <mxCell id="63v9wnLywm1o2MaWcaOy-4" value="Главная" style="ellipse;whiteSpace=wrap;html=1;" vertex="1" parent="1">
          <mxGeometry x="215" y="377" width="120" height="80" as="geometry" />
        </mxCell>
        <mxCell id="63v9wnLywm1o2MaWcaOy-16" style="edgeStyle=orthogonalEdgeStyle;rounded=0;orthogonalLoop=1;jettySize=auto;html=1;exitX=1;exitY=0.5;exitDx=0;exitDy=0;entryX=0;entryY=0.5;entryDx=0;entryDy=0;" edge="1" parent="1" source="63v9wnLywm1o2MaWcaOy-5" target="63v9wnLywm1o2MaWcaOy-15">
          <mxGeometry relative="1" as="geometry" />
        </mxCell>
        <mxCell id="63v9wnLywm1o2MaWcaOy-5" value="Персонажи" style="ellipse;whiteSpace=wrap;html=1;" vertex="1" parent="1">
          <mxGeometry x="375" y="241" width="120" height="80" as="geometry" />
        </mxCell>
        <mxCell id="63v9wnLywm1o2MaWcaOy-8" value="Реликвии" style="ellipse;whiteSpace=wrap;html=1;" vertex="1" parent="1">
          <mxGeometry x="375" y="431" width="120" height="80" as="geometry" />
        </mxCell>
        <mxCell id="63v9wnLywm1o2MaWcaOy-18" style="edgeStyle=orthogonalEdgeStyle;rounded=0;orthogonalLoop=1;jettySize=auto;html=1;exitX=1;exitY=0.5;exitDx=0;exitDy=0;entryX=0;entryY=0.5;entryDx=0;entryDy=0;" edge="1" parent="1" source="63v9wnLywm1o2MaWcaOy-9" target="63v9wnLywm1o2MaWcaOy-17">
          <mxGeometry relative="1" as="geometry" />
        </mxCell>
        <mxCell id="63v9wnLywm1o2MaWcaOy-9" value="Световой конус" style="ellipse;whiteSpace=wrap;html=1;" vertex="1" parent="1">
          <mxGeometry x="375" y="337" width="120" height="80" as="geometry" />
        </mxCell>
        <mxCell id="63v9wnLywm1o2MaWcaOy-24" style="edgeStyle=orthogonalEdgeStyle;rounded=0;orthogonalLoop=1;jettySize=auto;html=1;exitX=1;exitY=0.5;exitDx=0;exitDy=0;entryX=0;entryY=0.5;entryDx=0;entryDy=0;" edge="1" parent="1" source="63v9wnLywm1o2MaWcaOy-10" target="63v9wnLywm1o2MaWcaOy-23">
          <mxGeometry relative="1" as="geometry" />
        </mxCell>
        <mxCell id="63v9wnLywm1o2MaWcaOy-25" style="edgeStyle=orthogonalEdgeStyle;rounded=0;orthogonalLoop=1;jettySize=auto;html=1;exitX=1;exitY=0.5;exitDx=0;exitDy=0;entryX=0;entryY=0.5;entryDx=0;entryDy=0;" edge="1" parent="1" source="63v9wnLywm1o2MaWcaOy-10" target="63v9wnLywm1o2MaWcaOy-22">
          <mxGeometry relative="1" as="geometry" />
        </mxCell>
        <mxCell id="63v9wnLywm1o2MaWcaOy-26" style="edgeStyle=orthogonalEdgeStyle;rounded=0;orthogonalLoop=1;jettySize=auto;html=1;exitX=1;exitY=0.5;exitDx=0;exitDy=0;entryX=0;entryY=0.5;entryDx=0;entryDy=0;" edge="1" parent="1" source="63v9wnLywm1o2MaWcaOy-10" target="63v9wnLywm1o2MaWcaOy-21">
          <mxGeometry relative="1" as="geometry" />
        </mxCell>
        <mxCell id="63v9wnLywm1o2MaWcaOy-27" style="edgeStyle=orthogonalEdgeStyle;rounded=0;orthogonalLoop=1;jettySize=auto;html=1;exitX=1;exitY=0.5;exitDx=0;exitDy=0;entryX=0;entryY=0.5;entryDx=0;entryDy=0;" edge="1" parent="1" source="63v9wnLywm1o2MaWcaOy-10" target="63v9wnLywm1o2MaWcaOy-20">
          <mxGeometry relative="1" as="geometry" />
        </mxCell>
        <mxCell id="63v9wnLywm1o2MaWcaOy-10" value="Справочник" style="ellipse;whiteSpace=wrap;html=1;" vertex="1" parent="1">
          <mxGeometry x="550" y="517" width="120" height="80" as="geometry" />
        </mxCell>
        <mxCell id="63v9wnLywm1o2MaWcaOy-15" value="Подробная информация о конкретном персонаже" style="ellipse;whiteSpace=wrap;html=1;" vertex="1" parent="1">
          <mxGeometry x="550" y="241" width="120" height="80" as="geometry" />
        </mxCell>
        <mxCell id="63v9wnLywm1o2MaWcaOy-17" value="Подробная информация о конкретном световом конусе" style="ellipse;whiteSpace=wrap;html=1;" vertex="1" parent="1">
          <mxGeometry x="550" y="337" width="120" height="80" as="geometry" />
        </mxCell>
        <mxCell id="63v9wnLywm1o2MaWcaOy-20" value="Тип" style="ellipse;whiteSpace=wrap;html=1;" vertex="1" parent="1">
          <mxGeometry x="805" y="221" width="120" height="80" as="geometry" />
        </mxCell>
        <mxCell id="63v9wnLywm1o2MaWcaOy-21" value="Путь" style="ellipse;whiteSpace=wrap;html=1;" vertex="1" parent="1">
          <mxGeometry x="805" y="317" width="120" height="80" as="geometry" />
        </mxCell>
        <mxCell id="63v9wnLywm1o2MaWcaOy-22" value="Противники" style="ellipse;whiteSpace=wrap;html=1;" vertex="1" parent="1">
          <mxGeometry x="805" y="417" width="120" height="80" as="geometry" />
        </mxCell>
        <mxCell id="63v9wnLywm1o2MaWcaOy-23" value="Материалы" style="ellipse;whiteSpace=wrap;html=1;" vertex="1" parent="1">
          <mxGeometry x="805" y="517" width="120" height="80" as="geometry" />
        </mxCell>
      </root>
    </mxGraphModel>
  </diagram>
</mxfile>
